# xmcd CD database file
#
# Track frame offsets:
#	150
#	18662
#	38387
#
# Disc length: 755 seconds
#
# Revision: 2
# Processed by: cddbd v1.5.2PL0 Copyright (c) Steve Scherf et al.
# Submitted via: CDex 1.70beta2
#
DISCID=1702f103
DTITLE=東野純直 - summer-est 一番眩しい夏
DYEAR=1994
DGENRE=JPop
TTITLE0=summer-est 一番眩しい夏
TTITLE1=君の翼は何色ですか
TTITLE2=summer-est 一番眩しい夏 (オリジナル・カラオケ)
EXTD=YEAR: 1994
EXTT0=
EXTT1=
EXTT2=
PLAYORDER=
